<svg width="16" height="15" viewBox="0 0 16 15" fill="none" xmlns="http://www.w3.org/2000/svg">
<path fill-rule="evenodd" clip-rule="evenodd" d="M8 10.3333C6.13333 10.3333 4.66667 8.86659 4.66667 6.99992C4.66667 5.13325 6.13333 3.66659 8 3.66659C9.86667 3.66659 11.3333 5.13325 11.3333 6.99992C11.3333 7.19992 11.3333 7.46659 11.2666 7.66659C11.7999 7.46659 12.4 7.33325 13 7.33325C14 7.33325 14.8667 7.66659 15.6667 8.13326C15.6939 8.05161 15.7211 7.97273 15.7478 7.8955L15.7478 7.89548C15.8517 7.59438 15.9469 7.31826 16 6.99992C15.0667 3.13325 11.8667 0.333252 8 0.333252C4.13333 0.333252 0.933333 3.13325 0 6.99992C0.933333 10.8666 4.13333 13.6666 8 13.6666H8.66667C8.46667 13.1333 8.33333 12.5999 8.33333 11.9999C8.33333 11.3999 8.46667 10.7999 8.66667 10.2666C8.46672 10.3333 8.20013 10.3333 8.00015 10.3333H8ZM8 8.33325C8.73638 8.33325 9.33333 7.7363 9.33333 6.99992C9.33333 6.26354 8.73638 5.66658 8 5.66658C7.26362 5.66658 6.66667 6.26354 6.66667 6.99992C6.66667 7.7363 7.26362 8.33325 8 8.33325ZM13 10.6666L14.6667 8.99992L16 10.3333L14.3333 11.9999L16 13.6666L14.6667 14.9999L13 13.3333L11.3333 14.9999L10 13.6666L11.6667 11.9999L10 10.3333L11.3333 8.99992L13 10.6666Z" fill="black"/>
</svg>
