<svg width="20" height="20" viewBox="0 0 20 20" fill="none" xmlns="http://www.w3.org/2000/svg">
<path fill-rule="evenodd" clip-rule="evenodd" d="M10.0002 2.62505C5.89943 2.62505 2.62529 5.89919 2.62529 9.99994C2.62529 14.1007 5.89943 17.3748 10.0002 17.3748C14.1009 17.3748 17.3751 14.1007 17.3751 9.99994C17.3751 5.89919 14.1009 2.62505 10.0002 2.62505ZM0.166992 9.99994C0.166992 4.56922 4.56946 0.166748 10.0002 0.166748C15.4309 0.166748 19.8334 4.56922 19.8334 9.99994C19.8334 15.4307 15.4309 19.8331 10.0002 19.8331C4.56946 19.8331 0.166992 15.4307 0.166992 9.99994Z" fill="white"/>
<path fill-rule="evenodd" clip-rule="evenodd" d="M17.3749 9.99994C17.3749 5.9269 14.073 2.62505 10 2.62505V0.166748C15.4307 0.166748 19.8332 4.56922 19.8332 9.99994H17.3749Z" fill="#266EF1"/>
</svg>
